<svg version="1.2" xmlns="http://www.w3.org/2000/svg" viewBox="346 337.36 558 167.43" width="558" height="167.43">
	<defs>
		<linearGradient id="g1" x2="1" gradientUnits="userSpaceOnUse" gradientTransform="matrix(123.447,0,0,122.051,346,360)">
			<stop offset="0" stop-color="#fbb247"/>
			<stop offset="1" stop-color="#ffe86b"/>
		</linearGradient>
		<linearGradient id="g2" x2="1" gradientUnits="userSpaceOnUse" gradientTransform="matrix(106.123,0,0,114.357,348.977,364.977)">
			<stop offset="0" stop-color="#fefefe"/>
			<stop offset="1" stop-color="#fefefe" stop-opacity="0"/>
		</linearGradient>
		<linearGradient id="g3" x2="1" gradientUnits="userSpaceOnUse" gradientTransform="matrix(157.259,120.34,-138.402,151.778,331.9,273.108)">
			<stop offset="0" stop-color="#fbb247"/>
			<stop offset="1" stop-color="#ffe86b"/>
		</linearGradient>
		<linearGradient id="g4" x2="1" gradientUnits="userSpaceOnUse" gradientTransform="matrix(161.976,123.949,-142.553,156.33,294.755,273.258)">
			<stop offset="0" stop-color="#fbb247"/>
			<stop offset="1" stop-color="#ffe86b"/>
		</linearGradient>
		<linearGradient id="g5" x2="1" gradientUnits="userSpaceOnUse" gradientTransform="matrix(161.976,123.949,-142.553,156.33,338.625,323.48)">
			<stop offset="0" stop-color="#fbb247"/>
			<stop offset="1" stop-color="#ffe86b"/>
		</linearGradient>
		<linearGradient id="g6" x2="1" gradientUnits="userSpaceOnUse" gradientTransform="matrix(161.976,123.949,-142.553,156.33,316.199,346.303)">
			<stop offset="0" stop-color="#fbb247"/>
			<stop offset="1" stop-color="#ffe86b"/>
		</linearGradient>
		<linearGradient id="g7" x2="1" gradientUnits="userSpaceOnUse" gradientTransform="matrix(161.976,123.949,-142.553,156.33,339.324,303.81)">
			<stop offset="0" stop-color="#fbb247"/>
			<stop offset="1" stop-color="#ffe86b"/>
		</linearGradient>
		<linearGradient id="g8" x2="1" gradientUnits="userSpaceOnUse" gradientTransform="matrix(157.259,120.34,-138.402,151.778,331.9,273.108)">
			<stop offset="0" stop-color="#fbb247"/>
			<stop offset="1" stop-color="#ffe86b"/>
		</linearGradient>
		<linearGradient id="g9" x2="1" gradientUnits="userSpaceOnUse" gradientTransform="matrix(161.976,123.949,-142.553,156.33,294.755,273.258)">
			<stop offset="0" stop-color="#fbb247"/>
			<stop offset="1" stop-color="#ffe86b"/>
		</linearGradient>
		<linearGradient id="g10" x2="1" gradientUnits="userSpaceOnUse" gradientTransform="matrix(161.976,123.949,-142.553,156.33,338.625,323.48)">
			<stop offset="0" stop-color="#fbb247"/>
			<stop offset="1" stop-color="#ffe86b"/>
		</linearGradient>
		<linearGradient id="g11" x2="1" gradientUnits="userSpaceOnUse" gradientTransform="matrix(161.976,123.949,-142.553,156.33,316.199,346.303)">
			<stop offset="0" stop-color="#fbb247"/>
			<stop offset="1" stop-color="#ffe86b"/>
		</linearGradient>
		<linearGradient id="g12" x2="1" gradientUnits="userSpaceOnUse" gradientTransform="matrix(161.976,123.949,-142.553,156.33,339.324,303.81)">
			<stop offset="0" stop-color="#fbb247"/>
			<stop offset="1" stop-color="#ffe86b"/>
		</linearGradient>
	</defs>
	<style>
		.s0 { fill: url(#g1) } 
		.s1 { opacity: .5;mix-blend-mode: screen;fill: url(#g2) } 
		.s2 { fill: url(#g3) } 
		.s3 { fill: url(#g4) } 
		.s4 { fill: url(#g5) } 
		.s5 { fill: url(#g6) } 
		.s6 { fill: url(#g7) } 
		.s7 { fill: #cbcdcd } 
		.s8 { fill: #9d499b } 
		.s9 { mix-blend-mode: screen;fill: #fefefe } 
		.s10 { fill: #22344a } 
		.s11 { fill: #999fa1 } 
		.s12 { fill: url(#g8) } 
		.s13 { fill: url(#g9) } 
		.s14 { fill: url(#g10) } 
		.s15 { fill: url(#g11) } 
		.s16 { fill: url(#g12) } 
	</style>
	<g id="Layer 1">
		<g id="&lt;Group&gt;">
			<g id="&lt;Group&gt;">
				<g id="&lt;Group&gt;">
					<path id="&lt;Path&gt;" class="s0" d="m469.45 453.16c-11.58 16.24-31.19 27.55-53.71 28.79-37.45 2.06-69.75-24.18-69.74-59.58 0-33.69 29.1-60.44 64.54-62.37-2.53 0.13-6.5 3.21-8.54 4.5q-4.25 2.7-7.93 6.01c-4.98 4.46-9.11 9.71-12.19 15.43-5.12 9.54-7.23 20.55-6.15 31.18q0.06 0.6 0.31 1.16 0.17 0.38 0.42 0.72c1.19 1.58 7.22 9.53 14.21 12.87 0 0-4.15 4.82-7.83 6.56 0.84 1.51 0.89 1.62 1.87 3.05q2.08 3.02 4.61 5.75c-11.64 4.72-21.28 1.61-21.28 1.61 10.49 9.85 22.4 6.52 27.68 4.25 21.01 16.46 52.3 16.56 73.73 0.07z"/>
					<path id="&lt;Path&gt;" class="s1" d="m411.62 479.33c-16.68 0-32.34-5.78-44.11-16.28-11.96-10.67-18.54-25.11-18.53-40.67 0-27.04 19.9-50.15 47.38-57.4q-2.29 1.7-4.38 3.58c-5.22 4.68-9.52 10.13-12.77 16.18-5.3 9.85-7.59 21.44-6.45 32.63q0.11 1.01 0.53 1.95 0.32 0.7 0.73 1.24c1.89 2.53 6.48 8.2 12.11 11.92-1.41 1.34-3.16 2.82-4.66 3.53-1.46 0.69-2.03 2.33-1.28 3.67l0.15 0.27c0.74 1.32 0.89 1.58 1.85 2.98q1.07 1.55 2.26 3.05-4.15 1.13-8.46 1.14c-4.19 0-6.95-0.85-6.97-0.86q-0.48-0.15-0.97-0.15c-1 0-1.97 0.46-2.52 1.27-0.74 1.07-0.59 2.46 0.38 3.36 5.3 4.98 11.52 7.5 18.5 7.5 4.26 0 8.03-0.96 10.82-1.98 10.51 7.72 23.68 11.95 37.3 11.95 7.78 0 15.44-1.39 22.57-4.02-10.95 8.82-24.87 14.23-39.54 15.04q-1.97 0.1-3.94 0.1 0 0 0 0z"/>
					<g id="&lt;Group&gt;">
						<path id="&lt;Path&gt;" class="s2" d="m453.98 383.97l-2.13-9.08-2.14 9.08-9.63 2.28 9.63 2.28 2.14 9.08 2.13-9.08 9.63-2.28z"/>
						<path id="&lt;Path&gt;" class="s3" d="m464 411.15l-1.03-4.37-1.02 4.37-4.63 1.09 4.63 1.09 1.02 4.36 1.03-4.36 4.62-1.09z"/>
						<path id="&lt;Path&gt;" class="s4" d="m404.69 382.41l-1.03-4.36-1.03 4.36-4.62 1.09 4.62 1.1 1.03 4.36 1.03-4.36 4.62-1.1z"/>
						<path id="&lt;Path&gt;" class="s5" d="m386.36 404.18l-0.51-2.18-0.51 2.18-2.32 0.55 2.32 0.55 0.51 2.18 0.51-2.18 2.31-0.55z"/>
						<path id="&lt;Path&gt;" class="s6" d="m427.46 375.45l-0.51-2.18-0.51 2.18-2.32 0.54 2.32 0.55 0.51 2.18 0.51-2.18 2.32-0.55z"/>
					</g>
					<g id="&lt;Group&gt;">
						<g id="&lt;Group&gt;">
							<g id="&lt;Group&gt;">
								<g id="&lt;Group&gt;">
									<path id="&lt;Path&gt;" class="s7" d="m447.33 421.85c-1.76 4.73-3.64 9.43-5.5 14.14-1.58 4-2.9 8.18-5.7 11.73-1.37 1.75-3.97 3.49-6.76 2.62-2.88-0.9-3.36-3.85-3.46-6.32q-0.02-0.56-0.03-1.12c-0.03-1.32-0.08-2.68-0.4-4q-0.01-0.09-0.03-0.18-0.02-0.09-0.04-0.18-0.03-0.08-0.06-0.16-0.08-0.27-0.17-0.53-0.01-0.02-0.02-0.05c-0.79-2.09-2.41-3.51-4.28-3.52-1.87 0.01-3.48 1.43-4.27 3.52q-0.02 0.03-0.02 0.05-0.1 0.26-0.18 0.53-0.03 0.08-0.05 0.16-0.02 0.09-0.04 0.18-0.02 0.09-0.04 0.18c-0.32 1.32-0.37 2.68-0.4 4q-0.01 0.56-0.03 1.12c-0.09 2.47-0.58 5.42-3.45 6.32-2.8 0.87-5.39-0.87-6.77-2.62-2.79-3.55-4.11-7.73-5.69-11.73-1.86-4.71-3.74-9.41-5.5-14.14-2.6-6.99-3.25-14.29 1.96-20.54q0.87-1.06 1.96-1.96c3.38-2.79 8.09-3.81 12.58-3.24 3.08 0.39 5.91 1.77 8.18 3.71 3.13 2.67 10.38 8.24 19.68 5.96 0 0-8.13 1.68-15.18-7.16 5.85-3.66 14.47-3.67 19.79 0.73q1.08 0.9 1.96 1.96c5.21 6.25 4.56 13.55 1.96 20.54z"/>
								</g>
							</g>
						</g>
						<path id="&lt;Path&gt;" class="s8" d=""/>
						<path id="&lt;Path&gt;" class="s9" d="m437.55 413.8q-0.57-0.71-1.29-1.32c-3.54-2.98-9.39-2.98-13.39-0.49 4.48 5.64 9.67 4.9 10.15 4.81-6.26 1.5-11.1-2.21-13.2-4-1.53-1.31-3.46-2.25-5.55-2.51-3.05-0.39-6.24 0.3-8.5 2.19q-0.73 0.61-1.3 1.32c-0.71 0.87-1.24 1.89-1.63 2.94-0.68 1.85-0.79 3.82-0.46 5.74 1.11 6.26 4.61 23.96 8.96 23.96 3.6 0 1.4-5.91 3.35-10.34 2.27-5.16 10.24-5.16 12.47 0 1.91 4.43-0.33 10.34 3.27 10.34 4.32 0 7.93-17.54 9.12-23.96 0.41-2.23 0.24-4.54-0.73-6.62q-0.5-1.1-1.27-2.06z"/>
					</g>
				</g>
				<g id="&lt;Group&gt;">
					<g id="&lt;Group&gt;">
						<g id="&lt;Group&gt;">
							<g id="&lt;Group&gt;">
								<path id="&lt;Compound Path&gt;" class="s10" d="m556.46 372.87v-17.16-17.28h16.45q-0.18 0 0 2.49c0 1.65 0 3.55 0 5.56v8.05h16.69v9.23h-8.28-8.41v23.79h-16.45v-6.86c-1.19 0.71-2.37 1.18-3.55 1.65-1.42 0.48-2.84 0.95-4.38 1.3-1.66 0.48-3.2 0.72-4.74 0.95-1.65 0.24-3.31 0.36-5.09 0.36h-34.2c-3.55 0-6.28-0.95-8.29-3.08q-3.2-2.84-3.2-7.81c0-3.08 0.12-5.92 0.12-8.76 0-2.72 0-5.33 0-7.7v-11.36c0-0.71 0-1.3 0-2.01-0.12-0.59-0.12-1.18-0.12-1.66v-1.54h50.55v9.47h-1.42c-0.48 0-1.07 0-1.66-0.12q-1.07 0-2.13 0h-11.84c-2.6 0-5.21 0-7.93 0-2.84 0-5.92 0.12-8.99 0.12v24.86h30.3q5.32 0 9.23-0.71c1.42-0.12 2.72-0.36 4.02-0.71 1.19-0.24 2.25-0.59 3.32-1.07zm16.45 21.31v27.34h-51.13v9.47h26.63 18.35 8.28v9.12h-58.35c-3.67 0-6.39-0.95-8.29-2.84-2.25-2.14-3.31-4.86-3.31-8.17v-8.29-8.28h51.37v-9.12h-26.16-26.28v-9.23z"/>
								<path id="&lt;Compound Path&gt;" class="s10" d="m652.58 390.16h-40.37c-3.55 0-6.39-0.95-8.52-2.96-2.01-1.9-2.96-4.62-2.96-7.93v-19.42-19.64h16.34q-0.18 0.17 0 2.48c0 1.66 0 3.32 0 5.21v7.69h18.82v-7.69-7.69h16.69v7.81 17.16zm3.43 4.26v8.17h24.98v9.47h-24.63c0.48 3.55 1.66 6.39 3.79 8.52 2.01 2.37 4.5 4.26 7.58 5.8 2.96 1.42 6.27 2.48 9.82 3.31 3.44 0.71 6.87 1.07 10.42 1.07l-6.39 9.23c-3.08 0-6.28-0.35-9.59-0.83-3.55-0.71-6.87-1.65-10.18-2.96-3.31-1.18-6.27-2.72-8.64-4.49-2.49-1.9-4.26-4.03-5.33-6.28-1.18 2.25-2.96 4.38-5.32 6.28-2.61 1.77-5.33 3.31-8.41 4.49-3.31 1.31-6.74 2.25-10.18 2.96-3.55 0.48-6.86 0.83-9.94 0.83l-6.51-9.23c3.31-0.12 6.63-0.48 10.18-1.18 3.43-0.83 6.63-1.9 9.71-3.32 2.95-1.42 5.56-3.2 7.69-5.56 2.01-2.25 3.31-5.09 3.9-8.64h-24.38v-9.47h24.86v-8.17zm-38.94-29.47v15.74h18.82v-15.74zm47.22-26.87h16.58v53.74h-16.58z"/>
								<path id="&lt;Compound Path&gt;" class="s10" d="m760.18 349.56v9.47h-9.71-9.47v3.19c0 9.83 2.61 18.11 7.82 24.98 4.97 6.86 10.88 10.89 17.75 12.19l-8.05 7.22c-5.44-0.24-10.77-2.61-16.1-6.99-5.32-4.02-8.64-8.4-9.94-13.25-1.18 4.97-4.5 9.35-9.71 13.25-5.56 4.27-11 6.51-16.21 6.99l-8.17-7.22c6.63-1.19 12.67-5.33 17.99-12.31 4.97-6.87 7.58-15.15 7.58-24.86v-3.19h-9.47-9.71v-9.47h19.3v-7.46-4.74h16.8v4.74 7.46zm9.47-11.01h16.57v101.91h-16.57v-4.5q0-2.13 0-4.97c0-2.01 0-4.14 0.12-6.51v-35.04-35.03c-0.12-2.37-0.12-4.62-0.12-6.63q0-2.84 0-4.97z"/>
								<path id="&lt;Compound Path&gt;" class="s10" d="m818.78 404.12v-34.32h15.62c-0.12 0.47-0.12 0.83-0.12 1.3 0 0.47 0 0.95 0 1.3v22.96c0 1.42 0 2.96 0 4.38 0 1.54 0 2.96 0.12 4.38h19.06q5.5 0 9.94-0.71c2.84-0.35 5.33-0.83 7.46-1.54v-16.57c0-4.73 0-9.7 0.11-15.15 0-5.32 0-10.41 0-15.15v-11.95c0-0.71 0-1.31 0-1.9-0.11-0.47-0.11-0.94-0.11-1.42v-1.3h16.45v7.1 20.48h16.69v9.35h-16.69v54.8 7.34c0 0.95 0 1.9 0.12 2.72h-16.57c0-0.11 0.11-0.82 0.11-2.25q0-2.13 0-5.68c0-2.36 0-4.73 0-7.22-0.11-2.48-0.11-4.85-0.11-7.22v-7.81c-2.13 1.19-4.86 2.01-7.93 2.61q-4.8 1.06-10.3 1.06h-48.3v-9.59c0.24 0.12 0.6 0.12 1.19 0.12h9.47c0.71 0 1.3 0 2.01 0 0.47 0 1.07 0 1.78-0.12zm43.79-51.49v18.47c0 3.43-0.24 6.39-0.47 8.99-0.36 2.73-0.83 5.09-1.31 7.11-0.59 2.13-1.3 4.14-2.01 5.8-0.83 1.77-1.77 3.43-2.72 5.09h-14.56c1.07-1.66 1.89-3.44 2.61-5.33 0.59-1.66 1.06-3.67 1.42-5.8 0.23-2.01 0.47-4.26 0.59-6.75 0-2.36 0.12-5.09 0.12-8.16v-21.07h-39.07v-9.35h44.04c3.31 0 6.03 1.06 8.16 2.96 2.13 2.13 3.2 4.73 3.2 8.04z"/>
							</g>
						</g>
						<g id="&lt;Group&gt;">
							<g id="&lt;Group&gt;">
								<path id="&lt;Compound Path&gt;" class="s11" d="m496.54 504.14c0-5.32-0.04-10.56-0.04-15.71-0.09-5.1-0.09-10.3-0.09-15.62h9.44c2.42 0 4.67 0.39 6.66 1.08q2.98 1.12 5.19 3.08c1.47 1.38 2.6 3.02 3.38 4.84q1.16 2.86 1.16 6.23c0 2.34-0.3 4.5-0.9 6.41q-0.97 2.91-3.03 5.1c-1.39 1.47-3.16 2.64-5.24 3.42-2.16 0.78-4.71 1.17-7.74 1.17zm9.3-3.64c1.99 0 3.76-0.26 5.28-0.86 1.47-0.56 2.68-1.39 3.72-2.47 0.95-1.04 1.69-2.38 2.21-3.93q0.72-2.28 0.73-5.2 0-2.71-0.78-4.84c-0.52-1.39-1.3-2.6-2.25-3.64q-1.55-1.49-3.63-2.34c-1.47-0.52-3.07-0.82-4.89-0.82h-5.37v24.1z"/>
								<path id="&lt;Compound Path&gt;" class="s11" d="m530.34 482.94q1.93-0.98 4.06-1.69c1.39-0.43 2.82-0.69 4.24-0.69q4.82 0.01 7.23 2.29c1.56 1.56 2.34 3.98 2.34 7.18 0 2.34 0 4.72 0.04 7.06q0 3.55 0 7.05h-3.9v-2.77c-1.21 1.12-2.46 1.9-3.72 2.51-1.29 0.52-2.55 0.82-3.76 0.82q-1.95-0.01-3.51-0.35c-1.08-0.25-1.99-0.69-2.77-1.21q-1.16-0.79-1.81-2.16c-0.48-0.87-0.69-2.03-0.69-3.42q-0.02-2.22 1.21-3.72 1.15-1.43 3.03-2.34 1.81-0.83 4.02-1.21 2.14-0.33 4.15-0.34 0.6 0.01 1.52 0.08c0.6 0.09 1.25 0.13 2.03 0.22q-0.14-1.68-0.6-2.9-0.51-1.18-1.35-2.16c-0.51-0.48-1.08-0.83-1.77-1.09-0.74-0.21-1.6-0.34-2.64-0.34-1.34 0-2.6 0.3-3.76 0.82-1.21 0.56-2.34 1.17-3.29 1.82zm10.69 10.04c-0.65 0-1.43 0.08-2.3 0.17-0.95 0.17-1.81 0.39-2.64 0.74q-1.31 0.52-2.29 1.38c-0.69 0.61-1.08 1.38-1.26 2.25 0 0.52 0.05 0.99 0.22 1.43 0.09 0.47 0.35 0.86 0.69 1.21 0.35 0.39 0.78 0.69 1.39 0.87 0.56 0.25 1.3 0.34 2.2 0.34q2.81 0.01 4.89-1.86c0.61-0.56 1.13-1.3 1.52-2.16 0.35-0.87 0.56-1.86 0.56-2.99q0-0.31 0-0.69c-0.04-0.22-0.09-0.43-0.09-0.69z"/>
								<path id="&lt;Compound Path&gt;" class="s11" d="m553.53 472.2h4.45v31.94h-4.45z"/>
								<path id="&lt;Compound Path&gt;" class="s11" d="m568.45 472.2v11.47c0.78-0.91 1.78-1.64 3.08-2.25 1.21-0.52 2.64-0.82 4.19-0.82 1.65 0 3.12 0.35 4.46 0.95 1.3 0.69 2.47 1.56 3.42 2.6q1.35 1.69 2.12 3.76c0.48 1.43 0.74 2.9 0.74 4.37q0 2.34-0.65 4.55c-0.48 1.47-1.13 2.81-1.99 3.93-0.87 1.21-1.95 2.17-3.16 2.9q-1.87 1.04-4.33 1.04-1.11 0-2.16-0.13-1.11-0.14-2.08-0.47c-0.69-0.26-1.3-0.57-1.9-0.96-0.61-0.43-1.17-0.9-1.65-1.55v2.55h-4.41v-31.94zm13.54 20.3q0-1.35-0.39-2.9c-0.26-1-0.69-1.9-1.21-2.77q-0.85-1.23-2.03-2.08c-0.87-0.51-1.82-0.78-2.95-0.78-1.08 0-2.03 0.27-2.85 0.7q-1.31 0.71-2.16 1.82-0.92 1.15-1.39 2.5c-0.35 0.96-0.48 1.91-0.48 2.86q-0.01 1.62 0.31 3.25c0.17 1.12 0.56 2.16 1.08 3.02q0.71 1.42 2.08 2.25c0.86 0.61 2.03 0.87 3.41 0.87q1.82 0.01 3.12-0.82c0.82-0.52 1.51-1.26 2.03-2.12 0.52-0.83 0.87-1.78 1.13-2.81 0.17-1 0.3-2 0.3-2.99z"/>
								<path id="&lt;Compound Path&gt;" class="s11" d="m591.6 472.2h4.89v4.64h-4.89zm0.18 9.95h4.67v21.98h-4.67z"/>
								<path id="&lt;Compound Path&gt;" class="s11" d="m610.51 481.12h5.02v3.24h-5.02v12.51c0 1.56 0.26 2.64 0.87 3.24q0.78 0.91 2.46 0.91c0.31 0 0.7 0 1.13-0.08q0.58 0 1.3-0.26v3.46q-0.65 0.25-1.3 0.43-0.7 0.13-1.47 0.13c-2.25 0-4.03-0.52-5.24-1.47-1.3-0.99-1.9-2.68-1.9-5.02v-13.85c-0.78 0-1.6 0-2.55 0q-1.5 0.06-2.73 0.05v-3.29h5.28v-6.84h4.15z"/>
								<path id="&lt;Compound Path&gt;" class="s11" d="m633.44 504.14c0-5.32-0.04-10.56-0.04-15.71-0.09-5.1-0.09-10.3-0.09-15.62h9.44c2.42 0 4.67 0.39 6.66 1.08q2.99 1.12 5.19 3.08c1.47 1.38 2.6 3.02 3.38 4.84q1.17 2.86 1.17 6.23c0 2.34-0.31 4.5-0.91 6.41q-0.96 2.91-3.03 5.1c-1.39 1.47-3.16 2.64-5.24 3.42-2.16 0.78-4.71 1.17-7.74 1.17zm9.3-3.64c1.99 0 3.77-0.26 5.28-0.86 1.47-0.56 2.68-1.39 3.72-2.47 0.95-1.04 1.69-2.38 2.21-3.93q0.72-2.28 0.73-5.2 0-2.71-0.78-4.84c-0.51-1.39-1.29-2.6-2.25-3.64q-1.55-1.49-3.63-2.34c-1.47-0.52-3.07-0.82-4.89-0.82h-5.37v24.1z"/>
								<path id="&lt;Compound Path&gt;" class="s11" d="m685.32 502.62q-1.94 1.03-4.41 1.6c-1.69 0.35-3.29 0.57-4.85 0.57-2.03 0-3.76-0.35-5.19-0.95-1.47-0.65-2.68-1.48-3.59-2.6-0.95-1.04-1.6-2.29-2.03-3.77q-0.71-2.08-0.7-4.5c0-1.73 0.22-3.33 0.7-4.84q0.63-2.21 1.99-3.89 1.31-1.63 3.33-2.6c1.3-0.61 2.9-0.95 4.72-0.95 1.9 0 3.5 0.39 4.88 1.08q1.96 1.17 3.34 2.98 1.29 1.88 1.94 4.29c0.44 1.64 0.65 3.33 0.74 5.15h-17.14c0 1.12 0.18 2.07 0.52 2.94q0.51 1.35 1.47 2.25 1.95 1.95 5.2 1.95c1.47 0 2.9-0.18 4.32-0.61 1.39-0.35 2.64-0.87 3.81-1.47zm-3.76-11.34q0-1.17-0.39-2.47-0.45-1.24-1.21-2.29-0.85-1.02-2.08-1.73c-0.87-0.43-1.82-0.65-2.94-0.65q-1.56 0.01-2.6 0.74c-0.78 0.52-1.38 1.08-1.86 1.77q-0.79 1.11-1.12 2.34c-0.26 0.86-0.39 1.6-0.39 2.29z"/>
								<path id="&lt;Compound Path&gt;" class="s11" d="m695.58 483.41q0.78-1.04 2.46-1.82c1.09-0.43 2.25-0.69 3.51-0.69q3.1 0 5.1 0.91c1.3 0.65 2.38 1.47 3.16 2.51 0.78 1.08 1.3 2.34 1.65 3.72 0.26 1.43 0.43 2.95 0.43 4.5v11.6h-4.28v-11.6q0-1.31-0.26-2.81-0.26-1.43-0.91-2.73-0.65-1.18-1.82-2.03c-0.78-0.52-1.77-0.82-2.98-0.82q-1.57 0-2.69 0.65-1.18 0.71-1.9 1.81-0.77 1.16-1.08 2.64c-0.26 1.04-0.39 2.17-0.39 3.29v11.6h-4.46v-22.67h4.46z"/>
								<path id="&lt;Compound Path&gt;" class="s11" d="m725.95 481.12h5.02v3.24h-5.02v12.51c0 1.56 0.26 2.64 0.87 3.24q0.78 0.91 2.46 0.91c0.31 0 0.7 0 1.13-0.08q0.58 0 1.3-0.26v3.46q-0.65 0.25-1.3 0.43-0.7 0.13-1.47 0.13c-2.25 0-4.03-0.52-5.24-1.47-1.3-0.99-1.9-2.68-1.9-5.02v-13.85c-0.78 0-1.6 0-2.55 0q-1.5 0.06-2.73 0.05v-3.29h5.28v-6.84h4.15z"/>
								<path id="&lt;Compound Path&gt;" class="s11" d="m738.24 482.94q1.94-0.98 4.07-1.69c1.38-0.43 2.81-0.69 4.24-0.69q4.81 0.01 7.22 2.29c1.56 1.56 2.34 3.98 2.34 7.18 0 2.34 0 4.72 0.04 7.06q0 3.55 0 7.05h-3.89v-2.77c-1.21 1.12-2.47 1.9-3.72 2.51-1.3 0.52-2.56 0.82-3.77 0.82q-1.94-0.01-3.5-0.35c-1.08-0.25-1.99-0.69-2.77-1.21q-1.17-0.79-1.82-2.16c-0.47-0.87-0.69-2.03-0.69-3.42q-0.01-2.22 1.21-3.72 1.16-1.43 3.03-2.34 1.82-0.83 4.02-1.21 2.15-0.33 4.16-0.34 0.59 0.01 1.51 0.08c0.61 0.09 1.26 0.13 2.04 0.22q-0.14-1.68-0.61-2.9-0.51-1.18-1.34-2.16c-0.52-0.48-1.08-0.83-1.78-1.09-0.73-0.21-1.6-0.34-2.63-0.34-1.35 0-2.6 0.3-3.77 0.82-1.21 0.56-2.34 1.17-3.29 1.82zm10.69 10.04c-0.65 0-1.43 0.08-2.29 0.17-0.96 0.17-1.82 0.39-2.64 0.74q-1.31 0.52-2.3 1.38c-0.69 0.61-1.08 1.38-1.25 2.25 0 0.52 0.04 0.99 0.22 1.43 0.08 0.47 0.34 0.86 0.69 1.21 0.34 0.39 0.78 0.69 1.38 0.87 0.57 0.25 1.3 0.34 2.21 0.34q2.8 0.01 4.89-1.86c0.6-0.56 1.12-1.3 1.51-2.16 0.35-0.87 0.57-1.86 0.57-2.99q0-0.31 0-0.69c-0.05-0.22-0.09-0.43-0.09-0.69z"/>
								<path id="&lt;Compound Path&gt;" class="s11" d="m761.43 472.2h4.46v31.94h-4.46z"/>
								<path id="&lt;Compound Path&gt;" class="s11" d="m798.3 504.57q-3.51-0.01-6.36-1.12-2.86-1.11-4.94-3.25-2.08-2.07-3.2-5.1c-0.78-2-1.17-4.33-1.17-6.93q-0.01-3.24 1.21-6.1 1.18-2.8 3.34-5.02c1.38-1.47 3.03-2.6 4.93-3.46q2.86-1.24 6.23-1.25 4.74 0 7.92 2.07 3.12 2.09 5.41 5.93h-4.33q-0.65-0.85-1.43-1.64-0.85-0.71-1.9-1.35-1.1-0.52-2.47-0.9c-0.95-0.18-2.03-0.31-3.24-0.31-1.65 0-3.16 0.35-4.55 0.95q-2.08 1.03-3.59 2.65c-1.04 1.12-1.86 2.42-2.38 3.85-0.6 1.47-0.86 2.98-0.86 4.63 0 1.98 0.26 3.76 0.86 5.27 0.52 1.56 1.3 2.9 2.34 3.94q1.49 1.68 3.63 2.51c1.39 0.61 2.9 0.87 4.55 0.87 1.73 0 3.33-0.35 4.89-1.04 1.47-0.69 2.81-1.69 3.93-2.99h4.68q-2.27 3.64-5.71 5.71-3.51 2.08-7.79 2.08z"/>
								<path id="&lt;Compound Path&gt;" class="s11" d="m816.9 472.2h4.46v31.94h-4.46z"/>
								<path id="&lt;Compound Path&gt;" class="s11" d="m826.94 472.2h4.89v4.64h-4.89zm0.17 9.95h4.68v21.98h-4.68z"/>
								<path id="&lt;Compound Path&gt;" class="s11" d="m842.17 483.41q0.78-1.04 2.47-1.82c1.08-0.43 2.25-0.69 3.5-0.69q3.11 0 5.11 0.91c1.3 0.65 2.38 1.47 3.16 2.51 0.78 1.08 1.29 2.34 1.64 3.72 0.26 1.43 0.43 2.95 0.43 4.5v11.6h-4.28v-11.6q0-1.31-0.26-2.81-0.26-1.43-0.91-2.73-0.65-1.18-1.82-2.03c-0.77-0.52-1.77-0.82-2.98-0.82q-1.57 0-2.68 0.65-1.18 0.71-1.91 1.81-0.77 1.16-1.08 2.64c-0.26 1.04-0.39 2.17-0.39 3.29v11.6h-4.46v-22.67h4.46z"/>
								<path id="&lt;Compound Path&gt;" class="s11" d="m863.76 472.2h4.89v4.64h-4.89zm0.17 9.95h4.68v21.98h-4.68z"/>
								<path id="&lt;Compound Path&gt;" class="s11" d="m890.93 484.93c-0.78-0.22-1.51-0.44-2.29-0.61q-1.23-0.26-2.34-0.26c-2.81 0-4.93 0.82-6.36 2.38-1.47 1.65-2.16 3.76-2.16 6.36 0 1.52 0.22 2.81 0.74 3.9 0.43 1.12 1.08 2.07 1.9 2.77q1.18 1.09 2.81 1.6c1.04 0.38 2.21 0.56 3.42 0.56 0.82 0 1.69-0.09 2.64-0.3q1.3-0.27 2.6-0.87 0.24 1.03 0.3 1.6 0.01 0.38 0.08 0.69 0 0.32 0.13 0.83-1.61 0.58-3.28 0.91c-1.17 0.17-2.3 0.3-3.38 0.3q-2.67-0.01-4.89-0.87c-1.51-0.6-2.81-1.38-3.89-2.47q-1.69-1.55-2.6-3.76-0.96-2.15-0.95-4.89c0-1.99 0.3-3.76 0.99-5.32q0.98-2.21 2.73-3.76 1.69-1.51 4.02-2.3c1.48-0.47 3.12-0.73 4.85-0.73 1.08 0 2.03 0.08 2.81 0.21q1.16 0.27 2.64 0.74z"/>
							</g>
						</g>
					</g>
				</g>
				<g id="&lt;Group&gt;">
					<g id="&lt;Group&gt;">
						<path id="&lt;Path&gt;" class="s12" d="m453.98 383.97l-2.13-9.08-2.14 9.08-9.63 2.28 9.63 2.28 2.14 9.08 2.13-9.08 9.63-2.28z"/>
						<path id="&lt;Path&gt;" class="s13" d="m464 411.15l-1.03-4.37-1.02 4.37-4.63 1.09 4.63 1.09 1.02 4.36 1.03-4.36 4.62-1.09z"/>
						<path id="&lt;Path&gt;" class="s14" d="m404.69 382.41l-1.03-4.36-1.03 4.36-4.62 1.09 4.62 1.1 1.03 4.36 1.03-4.36 4.62-1.1z"/>
						<path id="&lt;Path&gt;" class="s15" d="m386.36 404.18l-0.51-2.18-0.51 2.18-2.32 0.55 2.32 0.55 0.51 2.18 0.51-2.18 2.31-0.55z"/>
						<path id="&lt;Path&gt;" class="s16" d="m427.46 375.45l-0.51-2.18-0.51 2.18-2.32 0.54 2.32 0.55 0.51 2.18 0.51-2.18 2.32-0.55z"/>
					</g>
					<g id="&lt;Group&gt;">
						<g id="&lt;Group&gt;">
							<g id="&lt;Group&gt;">
								<g id="&lt;Group&gt;">
									<path id="&lt;Path&gt;" class="s7" d="m447.33 421.85c-1.76 4.73-3.64 9.43-5.5 14.14-1.58 4-2.9 8.18-5.7 11.73-1.37 1.75-3.97 3.49-6.76 2.62-2.88-0.9-3.36-3.85-3.46-6.32q-0.02-0.56-0.03-1.12c-0.03-1.32-0.08-2.68-0.4-4q-0.01-0.09-0.03-0.18-0.02-0.09-0.04-0.18-0.03-0.08-0.06-0.16-0.08-0.27-0.17-0.53-0.01-0.02-0.02-0.05c-0.79-2.09-2.41-3.51-4.28-3.52-1.87 0.01-3.48 1.43-4.27 3.52q-0.02 0.03-0.02 0.05-0.1 0.26-0.18 0.53-0.03 0.08-0.05 0.16-0.02 0.09-0.04 0.18-0.02 0.09-0.04 0.18c-0.32 1.32-0.37 2.68-0.4 4q-0.01 0.56-0.03 1.12c-0.09 2.47-0.58 5.42-3.45 6.32-2.8 0.87-5.39-0.87-6.77-2.62-2.79-3.55-4.11-7.73-5.69-11.73-1.86-4.71-3.74-9.41-5.5-14.14-2.6-6.99-3.25-14.29 1.96-20.54q0.87-1.06 1.96-1.96c3.38-2.79 8.09-3.81 12.58-3.24 3.08 0.39 5.91 1.77 8.18 3.71 3.13 2.67 10.38 8.24 19.68 5.96 0 0-8.13 1.68-15.18-7.16 5.85-3.66 14.47-3.67 19.79 0.73q1.08 0.9 1.96 1.96c5.21 6.25 4.56 13.55 1.96 20.54z"/>
								</g>
							</g>
						</g>
						<path id="&lt;Path&gt;" class="s8" d=""/>
						<path id="&lt;Path&gt;" class="s9" d="m437.55 413.8q-0.57-0.71-1.29-1.32c-3.54-2.98-9.39-2.98-13.39-0.49 4.48 5.64 9.67 4.9 10.15 4.81-6.26 1.5-11.1-2.21-13.2-4-1.53-1.31-3.46-2.25-5.55-2.51-3.05-0.39-6.24 0.3-8.5 2.19q-0.73 0.61-1.3 1.32c-0.71 0.87-1.24 1.89-1.63 2.94-0.68 1.85-0.79 3.82-0.46 5.74 1.11 6.26 4.61 23.96 8.96 23.96 3.6 0 1.4-5.91 3.35-10.34 2.27-5.16 10.24-5.16 12.47 0 1.91 4.43-0.33 10.34 3.27 10.34 4.32 0 7.93-17.54 9.12-23.96 0.41-2.23 0.24-4.54-0.73-6.62q-0.5-1.1-1.27-2.06z"/>
					</g>
				</g>
			</g>
		</g>
	</g>
</svg>
